HIERARCHY
ROOT Hips
{
  OFFSET 0 89.5177 0.535
  CHANNELS 6 Xposition Yposition Zposition Zrotation Xrotation Yrotation
  JOINT Spine
  {
    OFFSET 12.0259 -0.162855 1.69034e-005
    CHANNELS 3 Zrotation Xrotation Yrotation
    JOINT Spine1
    {
      OFFSET 15.3169 -0.0121922 0
      CHANNELS 3 Zrotation Xrotation Yrotation
      JOINT Spine2
      {
        OFFSET 15.3176 -0.0121908 0
        CHANNELS 3 Zrotation Xrotation Yrotation
        JOINT Neck
        {
          OFFSET 19.9142 1.56338 0
          CHANNELS 3 Zrotation Xrotation Yrotation
          JOINT Head
          {
            OFFSET 6.92651 0 0
            CHANNELS 3 Zrotation Xrotation Yrotation
            End Site
            {
              OFFSET 20.7666 0 0
            }
          }
          JOINT LeftShoulder
          {
            OFFSET -6.20654 0.708824 7.28219
            CHANNELS 3 Zrotation Xrotation Yrotation
            JOINT LeftArm
            {
              OFFSET 14.108 0 -1.52588e-005
              CHANNELS 3 Zrotation Xrotation Yrotation
              JOINT LeftForeArm
              {
                OFFSET 28.5802 0 0
                CHANNELS 3 Zrotation Xrotation Yrotation
                JOINT LeftHand
                {
                  OFFSET 27.092 0 0
                  CHANNELS 3 Zrotation Xrotation Yrotation
                  End Site
                  {
                    OFFSET 9.55928 -0.186424 0.145352
                  }
                }
              }
            }
          }
          JOINT RightShoulder
          {
            OFFSET -6.20654 0.708866 -7.28218
            CHANNELS 3 Zrotation Xrotation Yrotation
            JOINT RightArm
            {
              OFFSET 14.108 0 1.52588e-005
              CHANNELS 3 Zrotation Xrotation Yrotation
              JOINT RightForeArm
              {
                OFFSET 28.5802 0 0
                CHANNELS 3 Zrotation Xrotation Yrotation
                JOINT RightHand
                {
                  OFFSET 27.092 0 0
                  CHANNELS 3 Zrotation Xrotation Yrotation
                  End Site
                  {
                    OFFSET 9.55929 -0.186417 -0.145354
                  }
                }
              }
            }
          }
        }
      }
    }
  }
  JOINT LeftUpLeg
  {
    OFFSET 0.005 -0.535 8.837
    CHANNELS 3 Zrotation Xrotation Yrotation
    JOINT LeftLeg
    {
      OFFSET 39.9035 0 0
      CHANNELS 3 Zrotation Xrotation Yrotation
      JOINT LeftFoot
      {
        OFFSET 39.6689 0 0
        CHANNELS 3 Zrotation Xrotation Yrotation
        JOINT LeftToe
        {
          OFFSET 10.1624 13.6296 0
          CHANNELS 3 Zrotation Xrotation Yrotation
          End Site
          {
            OFFSET 8.38147 0 0
          }
        }
      }
    }
  }
  JOINT RightUpLeg
  {
    OFFSET 0.005 -0.535 -8.837
    CHANNELS 3 Zrotation Xrotation Yrotation
    JOINT RightLeg
    {
      OFFSET 39.9035 0 0
      CHANNELS 3 Zrotation Xrotation Yrotation
      JOINT RightFoot
      {
        OFFSET 39.6689 0 0
        CHANNELS 3 Zrotation Xrotation Yrotation
        JOINT RightToe
        {
          OFFSET 10.1624 13.6296 0
          CHANNELS 3 Zrotation Xrotation Yrotation
          End Site
          {
            OFFSET 8.38147 0 0
          }
        }
      }
    }
  }
}
MOTION
Frames:	10
Frame Time:	0.0333333
221.017 87.0666 -255.637 -179.225 -83.0728 92.1198 -1.01658 -1.33967 -0.717481 -2.05069 -2.66581 -1.45904 -2.05069 -2.66581 -1.45905 -8.30788e-012 -9.0191e-006 -5.27751e-005 16.0027 -5.60391 1.78032 -173.963 -25.3747 -76.1364 -19.3684 -17.0799 32.4402 -22.292 4.77083e-015 -1.35174e-014 -40.2145 -53.8845 -44.4688 -176.272 17.4575 77.7468 -21.1725 19.3715 -31.8044 -13.2046 3.18055e-015 1.59028e-015 -75.7008 57.5267 80.2556 -10.535 9.74293 -177.238 -21.8456 -1.59028e-015 1.59028e-015 18.3951 5.53468 -3.47226 90 1.80097e-020 -0 -14.7418 -13.1119 173.18 -26.0729 1.59028e-015 -7.95139e-016 18.8961 -2.17665 3.70479 90 1.59244e-020 -3.18055e-015 
221.041 87.0725 -255.626 -178.623 -83.0642 92.7107 -1.01027 -1.324 -0.736114 -2.03827 -2.63423 -1.49588 -2.03827 -2.63423 -1.49589 -8.30788e-012 -9.0191e-006 -5.27751e-005 15.9418 -5.66596 1.90625 -174.207 -25.5722 -76.7742 -19.1394 -19.463 29.9428 -22.16 1.59028e-015 -0 -39.694 -54.3215 -43.9675 -176.519 17.3898 78.4965 -20.5606 21.9061 -29.4157 -12.7271 -9.54166e-015 -4.77083e-015 -75.2005 58.6152 79.6539 -10.5251 9.77224 -177.21 -21.8084 -1.59028e-015 -2.78299e-015 18.3759 5.49567 -3.48611 90 -4.17067e-021 -1.59028e-015 -14.7345 -13.029 173.232 -26.041 3.18056e-015 -7.95139e-016 18.8687 -2.15957 3.68167 90 -2.27491e-021 -3.18055e-015 
221.069 87.0759 -255.648 -178.307 -83.0938 93.0152 -0.99942 -1.32403 -0.750563 -2.0169 -2.63418 -1.52454 -2.0169 -2.63418 -1.52455 -8.30708e-012 -9.0191e-006 -5.27751e-005 15.8999 -5.47583 1.93473 -174.463 -25.7799 -77.4333 -19.0421 -21.7142 27.6626 -21.9374 -1.59028e-015 -6.36111e-015 -38.1292 -54.9241 -42.3482 -176.755 17.3008 79.2054 -19.9938 24.626 -27.1219 -12.1768 -6.36111e-015 -7.95139e-016 -74.2147 60.286 78.4831 -10.4666 9.85944 -177.169 -21.7708 3.18055e-015 3.97569e-016 18.3725 5.54327 -3.51304 90 -6.87212e-022 -1.59028e-015 -14.6575 -12.9768 173.283 -26.0007 0 7.95139e-016 18.8651 -2.13011 3.66207 90 2.42657e-020 -1.59028e-015 
221.08 87.0821 -255.654 -178.576 -83.0698 92.7442 -1.00386 -1.31957 -0.751005 -2.02573 -2.62519 -1.52544 -2.02573 -2.62519 -1.52545 -8.30669e-012 -9.0191e-006 -5.27751e-005 15.9737 -5.34728 1.80019 -174.709 -25.7868 -77.9809 -19.2237 -23.1103 25.2911 -21.8492 0 -3.18055e-015 -37.1722 -55.262 -41.3562 -176.988 17.4243 80.0327 -19.964 26.808 -24.8872 -11.4312 0 3.18055e-015 -73.5082 61.1874 77.6569 -10.4658 9.82442 -177.168 -21.7181 -4.77083e-015 -7.95139e-016 18.3454 5.52915 -3.5204 90 -1.02371e-020 -7.95139e-016 -14.6523 -13.0153 173.293 -25.9556 -6.36111e-015 -2.38542e-015 18.852 -2.14459 3.65523 90 -1.21329e-020 1.59028e-015 
221.088 87.0874 -255.664 -179.662 -83.0592 91.6463 -0.996998 -1.34471 -0.75809 -2.01253 -2.67544 -1.53993 -2.01253 -2.67544 -1.53993 -8.30748e-012 -9.0191e-006 -5.27751e-005 16.0897 -5.22487 1.78922 -174.922 -25.9655 -78.527 -19.6787 -24.5059 23.0969 -21.5002 1.27222e-014 -3.18055e-015 -36.5921 -55.1678 -40.7136 -177.2 17.4953 80.7593 -20.2697 28.489 -22.5531 -10.5256 3.18055e-015 7.95139e-016 -73.0134 61.6654 77.0846 -10.4726 9.67482 -177.173 -21.6881 -1.59028e-015 -1.19271e-015 18.3221 5.50626 -3.5199 90 -2.42657e-019 -1.59028e-015 -14.5992 -13.0635 173.308 -25.8894 1.59028e-015 -0 18.8465 -2.06777 3.65328 90 2.42657e-020 -3.18055e-015 
221.088 87.0914 -255.692 179.836 -83.0858 91.153 -0.986401 -1.35189 -0.761035 -1.9915 -2.68989 -1.5457 -1.9915 -2.68989 -1.54571 -8.30669e-012 -9.0191e-006 -5.27751e-005 16.2381 -5.03298 1.71224 -175.084 -26.0999 -78.9381 -20.136 -25.7496 21.0155 -21.0447 -3.18055e-015 -3.18055e-015 -36.2213 -55.2407 -40.3227 -177.395 17.6434 81.4632 -20.5974 29.9649 -20.3477 -9.89631 9.54166e-015 -2.38542e-015 -72.4646 62.2566 76.4521 -10.4004 9.6242 -177.195 -21.6263 -1.59028e-015 7.95139e-016 18.304 5.50659 -3.51902 90 1.57727e-019 1.59028e-015 -14.5193 -13.0553 173.303 -25.8457 1.59028e-015 -0 18.854 -2.00937 3.65891 90 2.65406e-021 3.18055e-015 
221.087 87.0951 -255.711 179.293 -83.0633 90.6136 -0.98671 -1.35874 -0.772215 -1.99248 -2.70338 -1.5682 -1.99248 -2.70338 -1.56821 -8.30828e-012 -9.0191e-006 -5.27751e-005 16.347 -5.09191 1.81491 -175.274 -26.087 -79.3518 -20.2672 -27.1312 19.1982 -20.6154 9.54166e-015 4.77083e-015 -36.0396 -55.4126 -40.1506 -177.613 17.7796 82.2263 -20.489 31.6931 -18.6953 -9.61416 6.36111e-015 6.36111e-015 -72.0748 62.8305 76.0028 -10.3924 9.55509 -177.216 -21.5806 1.59028e-015 7.95139e-016 18.2867 5.49722 -3.51791 90 -3.70052e-019 -0 -14.5034 -13.1103 173.291 -25.8053 6.36111e-015 -7.95139e-016 18.8544 -1.99466 3.66599 90 9.09964e-021 3.18055e-015 
221.086 87.0995 -255.743 179.053 -83.0837 90.3786 -0.974914 -1.3767 -0.781747 -1.96937 -2.7393 -1.58732 -1.96937 -2.7393 -1.58733 -8.30708e-012 -9.0191e-006 -5.27751e-005 16.4275 -4.97032 1.85983 -175.446 -26.2073 -79.777 -20.2627 -28.9583 17.8168 -20.0167 0 3.18055e-015 -35.6925 -55.4131 -39.7758 -177.783 17.9242 82.8297 -20.5314 33.0235 -17.0096 -9.54729 1.59028e-014 -2.38542e-015 -71.9315 63.1625 75.8355 -10.3161 9.5287 -177.232 -21.5126 0 1.19271e-015 18.2719 5.48409 -3.51696 90 1.75926e-019 7.95139e-016 -14.4221 -13.0778 173.298 -25.7528 3.18056e-015 7.95139e-016 18.8525 -1.94069 3.67118 90 0 -1.59028e-015 
221.085 87.102 -255.765 179.304 -83.0566 90.643 -0.970524 -1.37873 -0.792059 -1.96086 -2.74324 -1.60788 -1.96086 -2.74324 -1.60789 -8.30788e-012 -9.0191e-006 -5.27751e-005 16.4682 -4.86713 1.95413 -175.577 -26.292 -80.0951 -20.3452 -30.6796 16.4867 -19.3358 -3.18055e-015 -3.18055e-015 -35.3473 -55.3945 -39.4006 -177.939 18.1024 83.394 -20.6183 34.0778 -15.4593 -9.55328 1.59028e-014 -0 -71.9832 63.1026 75.8948 -10.2865 9.52582 -177.257 -21.45 -3.18055e-015 -1.19271e-015 18.262 5.44915 -3.51638 90 7.58303e-022 -1.59028e-015 -14.4266 -13.0343 173.293 -25.7315 0 -1.59028e-015 18.853 -1.92074 3.6766 90 0 -0 
221.084 87.1026 -255.798 179.561 -83.0475 90.8884 -0.969043 -1.38757 -0.797369 -1.95232 -2.7609 -1.61856 -1.95232 -2.7609 -1.61857 -8.30669e-012 -9.0191e-006 -5.27751e-005 16.583 -4.86766 2.10312 -175.664 -26.4404 -80.3366 -20.6467 -32.4397 15.1638 -18.3277 -1.27222e-014 -3.18055e-015 -35.2572 -55.223 -39.2792 -178.069 18.3209 83.8775 -20.951 34.9151 -13.9155 -9.33944 0 -2.38542e-015 -71.8419 63.1357 75.7356 -10.2537 9.53325 -177.244 -21.419 1.59028e-015 3.97569e-016 18.2746 5.43847 -3.52253 90 -2.61615e-020 -0 -14.3815 -12.97 173.326 -25.6899 3.18056e-015 7.95139e-016 18.8525 -1.88735 3.67797 90 -3.88251e-019 -0 
